<svg width="80" height="80" viewBox="0 0 80 80" fill="none" xmlns="http://www.w3.org/2000/svg">
<path fill-rule="evenodd" clip-rule="evenodd" d="M40 80C62.0914 80 80 62.0914 80 40C80 17.9086 62.0914 0 40 0C17.9086 0 0 17.9086 0 40C0 62.0914 17.9086 80 40 80Z" fill="#0057D9"/>
<path fill-rule="evenodd" clip-rule="evenodd" d="M39.8924 21.0234C47.1313 21.0234 52.9996 26.7159 52.9996 33.738C52.9996 39.1133 48.9133 47.3546 40.7407 58.4618C40.676 58.5497 40.5977 58.627 40.5087 58.6909C40.0662 59.0083 39.4567 58.9345 39.1036 58.5356L39.044 58.4618L38.767 58.0843C30.7791 47.1677 26.7852 39.0522 26.7852 33.738C26.7852 26.7159 32.6535 21.0234 39.8924 21.0234ZM39.8913 29.3064C37.259 29.3064 35.125 31.4256 35.125 34.0396C35.125 36.6537 37.259 38.7728 39.8913 38.7728C42.5236 38.7728 44.6576 36.6537 44.6576 34.0396C44.6576 31.4256 42.5236 29.3064 39.8913 29.3064Z" fill="white"/>
</svg>
