<svg width="416" height="513" viewBox="0 0 416 513" fill="none" xmlns="http://www.w3.org/2000/svg">
<path d="M413.396 355.712C411.704 353.096 408.953 351.35 405.865 350.933C365.244 345.627 336.615 308.396 341.921 267.775C345.669 239.081 365.761 215.187 393.386 206.57C398.996 204.772 402.087 198.767 400.289 193.157C400.009 192.284 399.618 191.45 399.125 190.676C380.484 157.034 347.339 133.897 309.333 127.999C290.181 128.913 271.307 132.956 253.461 139.967C240.644 145.125 227.11 148.284 213.333 149.332C199.556 148.284 186.022 145.125 173.205 139.967C155.359 132.956 136.485 128.913 117.333 127.999C77.504 127.999 0 184.468 0 287.999C0 386.388 71.765 511.999 128 511.999C149.457 512.191 170.656 507.308 189.867 497.748C197.102 493.758 205.099 491.344 213.334 490.665C221.568 491.344 229.566 493.758 236.801 497.748C256.012 507.308 277.211 512.191 298.668 511.999C343.255 511.999 393.58 435.455 414.657 364.522C415.539 361.543 415.079 358.325 413.396 355.712Z" fill="white"/>
<path d="M202.665 128C267.437 127.929 319.928 75.439 319.998 10.667C319.998 4.776 315.223 0 309.332 0C244.56 0.071 192.069 52.561 191.999 117.333C191.998 123.224 196.774 128 202.665 128Z" fill="white"/>
</svg>
