<svg width="210" height="62" viewBox="0 0 210 62" fill="none" xmlns="http://www.w3.org/2000/svg">
<path d="M202.227 61.9995H7.7766C3.50137 61.9995 0 58.5107 0 54.2509V7.74964C0 3.48979 3.50137 0.00101089 7.7766 0.00101089H202.223C206.499 0.00101089 210 3.48979 210 7.74964V54.2477C210.003 58.5107 206.502 61.9995 202.227 61.9995Z" fill="black"/>
<path d="M74.3602 15.8774C74.3602 17.1731 73.9669 18.2096 73.1964 18.9807C72.3075 19.8971 71.1533 20.3585 69.7337 20.3585C68.378 20.3585 67.2238 19.8908 66.2742 18.9649C65.3245 18.0263 64.8481 16.876 64.8481 15.4982C64.8481 14.1204 65.3214 12.9701 66.2742 12.041C67.2238 11.1088 68.378 10.6411 69.7337 10.6411C70.4083 10.6411 71.051 10.7802 71.6648 11.033C72.2755 11.2921 72.7743 11.6397 73.1356 12.0695L72.3171 12.888C71.6872 12.1548 70.8303 11.7914 69.7369 11.7914C68.7489 11.7914 67.892 12.1327 67.1662 12.8216C66.4468 13.5105 66.0855 14.4048 66.0855 15.5014C66.0855 16.5979 66.4468 17.4986 67.1662 18.1875C67.892 18.8669 68.7489 19.2177 69.7369 19.2177C70.7856 19.2177 71.668 18.8701 72.3651 18.1812C72.8223 17.7261 73.0845 17.0972 73.1516 16.2946H69.7369V15.1759H74.293C74.3442 15.4161 74.3602 15.6499 74.3602 15.8774Z" fill="white" stroke="white" stroke-width="0.199309" stroke-miterlimit="10"/>
<path d="M81.5894 11.9936H77.3114V14.9388H81.1706V16.0575H77.3114V19.0027H81.5894V20.1436H76.0996V10.8528H81.5894V11.9936Z" fill="white" stroke="white" stroke-width="0.199309" stroke-miterlimit="10"/>
<path d="M86.6891 20.1467H85.4773V11.9936H82.8523V10.8528H89.3141V11.9936H86.6859V20.1467H86.6891Z" fill="white" stroke="white" stroke-width="0.199309" stroke-miterlimit="10"/>
<path d="M93.9917 20.1467V10.856H95.2003V20.1467H93.9917Z" fill="white" stroke="white" stroke-width="0.199309" stroke-miterlimit="10"/>
<path d="M100.565 20.1467H99.3632V11.9936H96.7286V10.8528H103.2V11.9936H100.565V20.1467Z" fill="white" stroke="white" stroke-width="0.199309" stroke-miterlimit="10"/>
<path d="M115.436 18.9491C114.509 19.8876 113.361 20.3585 111.99 20.3585C110.611 20.3585 109.464 19.8908 108.536 18.9491C107.612 18.0105 107.152 16.8602 107.152 15.4982C107.152 14.1362 107.612 12.9859 108.536 12.0474C109.464 11.1088 110.611 10.6379 111.99 10.6379C113.352 10.6379 114.499 11.1056 115.427 12.0537C116.36 12.9986 116.821 14.1425 116.821 15.4951C116.821 16.8634 116.36 18.0137 115.436 18.9491ZM109.432 18.1717C110.129 18.8669 110.979 19.2145 111.99 19.2145C112.993 19.2145 113.85 18.8669 114.541 18.1717C115.238 17.4765 115.59 16.5821 115.59 15.5014C115.59 14.4174 115.238 13.5263 114.541 12.8311C113.85 12.1358 112.993 11.7882 111.99 11.7882C110.979 11.7882 110.129 12.1358 109.432 12.8311C108.735 13.5263 108.383 14.4206 108.383 15.5014C108.383 16.5821 108.735 17.4765 109.432 18.1717Z" fill="white" stroke="white" stroke-width="0.199309" stroke-miterlimit="10"/>
<path d="M118.522 20.1467V10.8559H119.992L124.565 18.0832H124.619L124.565 16.2977V10.8528H125.773V20.1436H124.51L119.724 12.5593H119.669L119.724 14.3542V20.1467H118.522Z" fill="white" stroke="white" stroke-width="0.199309" stroke-miterlimit="10"/>
<path d="M106.851 33.7164C103.168 33.7164 100.159 36.4878 100.159 40.3084C100.159 44.1006 103.168 46.9004 106.851 46.9004C110.541 46.9004 113.553 44.1006 113.553 40.3084C113.55 36.4878 110.541 33.7164 106.851 33.7164ZM106.851 44.306C104.831 44.306 103.091 42.6564 103.091 40.3116C103.091 37.9351 104.831 36.314 106.851 36.314C108.872 36.314 110.618 37.9351 110.618 40.3116C110.618 42.6564 108.872 44.306 106.851 44.306ZM92.2492 33.7164C88.5594 33.7164 85.5572 36.4878 85.5572 40.3084C85.5572 44.1006 88.5594 46.9004 92.2492 46.9004C95.9389 46.9004 98.9412 44.1006 98.9412 40.3084C98.9412 36.4878 95.9389 33.7164 92.2492 33.7164ZM92.2492 44.306C90.2252 44.306 88.4827 42.6564 88.4827 40.3116C88.4827 37.9351 90.2284 36.314 92.2492 36.314C94.2699 36.314 96.0092 37.9351 96.0092 40.3116C96.0092 42.6564 94.2699 44.306 92.2492 44.306ZM74.8717 35.7357V38.5387H81.6404C81.4422 40.103 80.9146 41.2564 80.1025 42.056C79.1145 43.0261 77.5766 44.1006 74.8717 44.1006C70.7056 44.1006 67.4443 40.7793 67.4443 36.6616C67.4443 32.544 70.7056 29.2227 74.8717 29.2227C77.1226 29.2227 78.7628 30.0917 79.9714 31.2199L81.9698 29.2448C80.2784 27.6489 78.0275 26.4228 74.8717 26.4228C69.1581 26.4228 64.3589 31.0176 64.3589 36.6616C64.3589 42.3056 69.1581 46.9004 74.8717 46.9004C77.9603 46.9004 80.2784 45.9018 82.1008 44.0247C83.9681 42.1792 84.55 39.5816 84.55 37.4864C84.55 36.8354 84.4956 36.2382 84.3965 35.7357H74.8717ZM145.926 37.9099C145.376 36.4341 143.675 33.7164 140.212 33.7164C136.782 33.7164 133.926 36.3867 133.926 40.3084C133.926 44.0026 136.753 46.9004 140.542 46.9004C143.605 46.9004 145.373 45.0549 146.102 43.9773L143.828 42.4794C143.071 43.576 142.038 44.3028 140.542 44.3028C139.058 44.3028 137.993 43.6297 137.312 42.3056L146.233 38.6588L145.926 37.9099ZM136.829 40.103C136.753 37.5623 138.828 36.2603 140.311 36.2603C141.475 36.2603 142.463 36.8354 142.792 37.6602L136.829 40.103ZM129.578 46.4991H132.51V27.1244H129.578V46.4991ZM124.776 35.1858H124.676C124.018 34.4148 122.761 33.7164 121.169 33.7164C117.828 33.7164 114.774 36.6142 114.774 40.3305C114.774 44.0247 117.828 46.9004 121.169 46.9004C122.761 46.9004 124.018 46.1957 124.676 45.4025H124.776V46.3474C124.776 48.8692 123.413 50.2217 121.217 50.2217C119.426 50.2217 118.314 48.9419 117.857 47.8674L115.305 48.9197C116.04 50.6673 117.988 52.8193 121.217 52.8193C124.654 52.8193 127.557 50.819 127.557 45.9555V34.1177H124.779V35.1858H124.776ZM121.422 44.306C119.401 44.306 117.709 42.6343 117.709 40.3337C117.709 38.011 119.401 36.314 121.422 36.314C123.413 36.314 124.983 38.0078 124.983 40.3337C124.983 42.6311 123.413 44.306 121.422 44.306ZM159.655 27.1244H152.64V46.4991H155.566V39.1581H159.655C162.904 39.1581 166.088 36.8354 166.088 33.1412C166.088 29.4471 162.894 27.1244 159.655 27.1244ZM159.732 36.4625H155.566V29.8199H159.732C161.916 29.8199 163.163 31.6117 163.163 33.1412C163.163 34.6391 161.916 36.4625 159.732 36.4625ZM177.813 33.6785C175.699 33.6785 173.503 34.6012 172.598 36.6458L175.194 37.7203C175.754 36.6458 176.78 36.295 177.867 36.295C179.386 36.295 180.924 37.1957 180.946 38.7852V38.9875C180.415 38.6841 179.284 38.2385 177.89 38.2385C175.095 38.2385 172.246 39.7585 172.246 42.5963C172.246 45.194 174.536 46.8657 177.109 46.8657C179.079 46.8657 180.163 45.9871 180.847 44.9664H180.946V46.4643H183.769V39.0317C183.769 35.5998 181.173 33.6785 177.813 33.6785ZM177.458 44.2965C176.502 44.2965 175.169 43.8288 175.169 42.6564C175.169 41.1553 176.831 40.5802 178.27 40.5802C179.559 40.5802 180.163 40.8614 180.943 41.2312C180.716 43.0261 179.152 44.2965 177.458 44.2965ZM194.062 34.1051L190.701 42.5047H190.602L187.127 34.1051H183.974L189.195 45.8418L186.215 52.3738H189.272L197.32 34.1051H194.062ZM167.696 46.4991H170.628V27.1244H167.696V46.4991Z" fill="white"/>
<path d="M16.3639 11.6841C15.9034 12.1613 15.6381 12.9039 15.6381 13.8646V48.1425C15.6381 49.1032 15.9034 49.8458 16.3639 50.323L16.479 50.4272L35.9123 31.2263V30.7744L16.479 11.5735L16.3639 11.6841Z" fill="url(#paint0_linear)"/>
<path d="M42.3837 37.6287L35.9124 31.2262V30.7744L42.3901 24.3719L42.534 24.4541L50.2076 28.7677C52.3978 29.9906 52.3978 32.0068 50.2076 33.2392L42.534 37.5465L42.3837 37.6287Z" fill="url(#paint1_linear)"/>
<path d="M42.5372 37.5465L35.9123 30.9987L16.3639 50.3229C17.0897 51.0782 18.2759 51.1698 19.6252 50.4145L42.5372 37.5465Z" fill="url(#paint2_linear)"/>
<path d="M42.5372 24.4542L19.6252 11.5861C18.2759 10.8372 17.0897 10.9288 16.3639 11.6841L35.9123 30.9988L42.5372 24.4542Z" fill="url(#paint3_linear)"/>
<defs>
<linearGradient id="paint0_linear" x1="34.1847" y1="48.5008" x2="1.97994" y2="15.5321" gradientUnits="userSpaceOnUse">
<stop stop-color="#00A0FF"/>
<stop offset="0.0066" stop-color="#00A1FF"/>
<stop offset="0.2601" stop-color="#00BEFF"/>
<stop offset="0.5122" stop-color="#00D2FF"/>
<stop offset="0.7604" stop-color="#00DFFF"/>
<stop offset="1" stop-color="#00E3FF"/>
</linearGradient>
<linearGradient id="paint1_linear" x1="53.0595" y1="30.9997" x2="5.51304" y2="30.9997" gradientUnits="userSpaceOnUse">
<stop stop-color="#FFE000"/>
<stop offset="0.4087" stop-color="#FFBD00"/>
<stop offset="0.7754" stop-color="#FFA500"/>
<stop offset="1" stop-color="#FF9C00"/>
</linearGradient>
<linearGradient id="paint2_linear" x1="25.8475" y1="40.3745" x2="-17.8247" y2="-4.33361" gradientUnits="userSpaceOnUse">
<stop stop-color="#FF3A44"/>
<stop offset="1" stop-color="#C31162"/>
</linearGradient>
<linearGradient id="paint3_linear" x1="-1.63843" y1="48.7937" x2="17.8621" y2="28.8307" gradientUnits="userSpaceOnUse">
<stop stop-color="#32A071"/>
<stop offset="0.0685" stop-color="#2DA771"/>
<stop offset="0.4762" stop-color="#15CF74"/>
<stop offset="0.8009" stop-color="#06E775"/>
<stop offset="1" stop-color="#00F076"/>
</linearGradient>
</defs>
</svg>
