<svg width="481" height="513" viewBox="0 0 481 513" fill="none" xmlns="http://www.w3.org/2000/svg">
<path d="M447.872 202.655L95.776 8.28706C75.168 -3.07294 50.752 -2.75294 30.496 9.24706C11.392 20.5431 0 40.1591 0 61.7271V450.399C0 471.999 11.424 491.615 30.528 502.911C40.928 509.055 52.416 512.127 63.936 512.127C74.848 512.127 85.76 509.375 95.808 503.807L447.904 309.503C468.032 298.367 480.064 278.399 480.032 256.031C480.032 233.695 468 213.759 447.872 202.655ZM432.384 281.503L80.32 475.807C69.728 481.631 57.184 481.471 46.784 475.327C37.376 469.791 32 460.703 32 450.399V61.7271C32 51.4231 37.376 42.3351 46.72 36.7991C52.096 33.6311 58.016 32.0631 63.936 32.0631C69.536 32.0631 75.136 33.4711 80.288 36.2871L432.416 230.687C442.144 236.063 448 245.567 448 256.063C448 266.559 442.176 276.095 432.384 281.503Z" fill="white"/>
<path d="M375.808 325.279L41.7282 17.0871C35.2322 11.1351 25.1202 11.5191 19.1042 18.0151C13.1202 24.5111 13.5042 34.6231 20.0002 40.6071L354.08 348.767C357.152 351.615 361.056 353.023 364.928 353.023C369.248 353.023 373.536 351.327 376.704 347.871C382.72 341.375 382.304 331.263 375.808 325.279Z" fill="white"/>
<path d="M357.984 153.919C351.744 147.679 341.6 147.679 335.36 153.919L18.5599 470.687C12.3199 476.927 12.3199 487.071 18.5599 493.311C21.6959 496.415 25.7919 497.983 29.8879 497.983C33.9839 497.983 38.0799 496.415 41.1839 493.311L357.984 176.543C364.224 170.303 364.224 160.159 357.984 153.919Z" fill="white"/>
</svg>
