<svg width="50" height="49" viewBox="0 0 50 49" fill="none" xmlns="http://www.w3.org/2000/svg">
<g clip-path="url(#clip0)">
<circle cx="24.8452" cy="24.1616" r="24.1616" fill="#9AB9FA"/>
<path d="M24.843 14.8535C22.3737 14.8535 20.0056 15.8344 18.2596 17.5804C16.5136 19.3264 15.5327 21.6945 15.5327 24.1638C15.5327 26.633 16.5136 29.0011 18.2596 30.7471C20.0056 32.4931 22.3737 33.474 24.843 33.474C27.3122 33.474 29.6803 32.4931 31.4263 30.7471C33.1723 29.0011 34.1532 26.633 34.1532 24.1638C34.1532 21.6945 33.1723 19.3264 31.4263 17.5804C29.6803 15.8344 27.3122 14.8535 24.843 14.8535ZM24.843 30.2102C23.2388 30.2102 21.7004 29.573 20.5661 28.4387C19.4318 27.3044 18.7945 25.7659 18.7945 24.1618C18.7945 22.5576 19.4318 21.0192 20.5661 19.8849C21.7004 18.7506 23.2388 18.1133 24.843 18.1133C26.4471 18.1133 27.9856 18.7506 29.1199 19.8849C30.2542 21.0192 30.8914 22.5576 30.8914 24.1618C30.8914 25.7659 30.2542 27.3044 29.1199 28.4387C27.9856 29.573 26.4471 30.2102 24.843 30.2102Z" fill="white"/>
<path d="M34.5211 16.6814C35.7198 16.6814 36.6916 15.7096 36.6916 14.5108C36.6916 13.3121 35.7198 12.3403 34.5211 12.3403C33.3224 12.3403 32.3506 13.3121 32.3506 14.5108C32.3506 15.7096 33.3224 16.6814 34.5211 16.6814Z" fill="white"/>
<path d="M42.0261 12.3041C41.56 11.1004 40.8477 10.0073 39.9348 9.09477C39.0219 8.18222 37.9285 7.47033 36.7246 7.00468C35.3159 6.47585 33.8276 6.18991 32.3232 6.15902C30.3842 6.07445 29.7701 6.05029 24.8532 6.05029C19.9364 6.05029 19.3061 6.05029 17.3833 6.15902C15.88 6.18833 14.3928 6.47433 12.9859 7.00468C11.7817 7.46979 10.688 8.18149 9.77507 9.0941C8.86211 10.0067 8.14999 11.1001 7.68442 12.3041C7.1555 13.7128 6.87021 15.2012 6.84078 16.7055C6.7542 18.6425 6.72803 19.2566 6.72803 24.1755C6.72803 29.0924 6.72803 29.7186 6.84078 31.6455C6.87098 33.1515 7.15488 34.6375 7.68442 36.0489C8.1513 37.2525 8.8641 38.3454 9.77729 39.2579C10.6905 40.1704 11.784 40.8824 12.9879 41.3483C14.3921 41.8984 15.88 42.2048 17.3873 42.2544C19.3263 42.339 19.9404 42.3651 24.8573 42.3651C29.7741 42.3651 30.4044 42.3651 32.3272 42.2544C33.8315 42.2238 35.3197 41.9386 36.7287 41.4108C37.9322 40.944 39.0253 40.2315 39.9381 39.3187C40.8509 38.4059 41.5634 37.3129 42.0301 36.1093C42.5596 34.6999 42.8435 33.2139 42.8737 31.7079C42.9603 29.7709 42.9865 29.1568 42.9865 24.2379C42.9865 19.319 42.9865 18.6949 42.8737 16.768C42.8503 15.2423 42.5635 13.7322 42.0261 12.3041ZM39.5737 31.4965C39.5607 32.6568 39.3489 33.8064 38.9475 34.8952C38.6451 35.6782 38.1822 36.3892 37.5885 36.9825C36.9949 37.5758 36.2836 38.0383 35.5004 38.3402C34.4237 38.7398 33.2864 38.9516 32.138 38.9664C30.2252 39.055 29.6856 39.0772 24.7808 39.0772C19.8719 39.0772 19.3706 39.0772 17.4215 38.9664C16.2737 38.9524 15.1369 38.7405 14.0611 38.3402C13.2752 38.0402 12.561 37.5785 11.9648 36.9851C11.3686 36.3916 10.9036 35.6797 10.5999 34.8952C10.2042 33.8181 9.99248 32.6821 9.97373 31.5347C9.88715 29.6219 9.86702 29.0823 9.86702 24.1775C9.86702 19.2707 9.86702 18.7693 9.97373 16.8183C9.98675 15.6586 10.1985 14.5097 10.5999 13.4216C11.214 11.833 12.4724 10.5826 14.0611 9.97454C15.1374 9.57615 16.2739 9.36438 17.4215 9.34835C19.3363 9.26177 19.8739 9.23761 24.7808 9.23761C29.6876 9.23761 30.1909 9.23761 32.138 9.34835C33.2864 9.36216 34.424 9.574 35.5004 9.97454C36.2835 10.2771 36.9947 10.7401 37.5883 11.3337C38.182 11.9273 38.6449 12.6385 38.9475 13.4216C39.3432 14.4987 39.5549 15.6347 39.5737 16.7821C39.6603 18.6969 39.6824 19.2345 39.6824 24.1413C39.6824 29.0461 39.6824 29.5736 39.5958 31.4985H39.5737V31.4965Z" fill="white"/>
</g>
<defs>
<clipPath id="clip0">
<rect width="48.3232" height="48.3232" fill="white" transform="translate(0.683594)"/>
</clipPath>
</defs>
</svg>
