<svg width="495" height="165" viewBox="0 0 495 165" fill="none" xmlns="http://www.w3.org/2000/svg">
<path d="M182.852 148.573C182.852 152.172 180.556 154.244 176.572 154.244H172.361V159.412H170.522V143.093H176.569C180.556 143.096 182.852 145.1 182.852 148.573ZM181.083 148.629C181.083 146.136 179.399 144.825 176.505 144.825H172.364V152.512H176.505C179.402 152.514 181.083 151.192 181.083 148.629Z" fill="url(#paint0_linear)"/>
<path d="M187.711 143.643C187.699 143.873 187.619 144.094 187.482 144.279C187.345 144.463 187.157 144.604 186.942 144.683C186.726 144.762 186.491 144.776 186.268 144.724C186.044 144.671 185.84 144.554 185.682 144.387C185.524 144.22 185.419 144.01 185.379 143.784C185.339 143.557 185.366 143.324 185.457 143.113C185.548 142.902 185.699 142.722 185.891 142.596C186.083 142.47 186.308 142.402 186.538 142.403C186.697 142.403 186.855 142.437 187.002 142.5C187.148 142.564 187.28 142.656 187.39 142.772C187.499 142.888 187.584 143.025 187.64 143.175C187.695 143.325 187.719 143.484 187.711 143.643ZM187.431 147.161V159.415H185.662V147.161H187.431Z" fill="url(#paint1_linear)"/>
<path d="M202.896 151.866V159.415H201.105V152.332C201.151 151.867 201.096 151.398 200.941 150.957C200.786 150.516 200.536 150.115 200.209 149.782C199.882 149.448 199.486 149.191 199.048 149.028C198.611 148.864 198.143 148.799 197.677 148.837C197.144 148.826 196.615 148.921 196.12 149.118C195.625 149.314 195.174 149.608 194.795 149.982C194.415 150.356 194.114 150.801 193.909 151.293C193.705 151.785 193.601 152.313 193.604 152.846V159.415H191.818V147.161H193.609V149.859C194.014 148.972 194.68 148.23 195.519 147.733C196.357 147.236 197.328 147.008 198.3 147.08C198.932 147.033 199.567 147.127 200.158 147.354C200.75 147.581 201.284 147.936 201.723 148.393C202.162 148.85 202.494 149.398 202.697 149.998C202.9 150.599 202.968 151.236 202.896 151.866Z" fill="url(#paint2_linear)"/>
<path d="M228.844 151.259C228.851 152.348 228.639 153.427 228.22 154.432C227.801 155.437 227.183 156.346 226.403 157.106C225.624 157.867 224.699 158.462 223.684 158.856C222.67 159.25 221.586 159.435 220.498 159.401H214.06V143.082H220.57C221.656 143.054 222.737 143.246 223.747 143.646C224.757 144.046 225.675 144.646 226.448 145.409C227.221 146.173 227.831 147.085 228.243 148.09C228.654 149.095 228.859 150.173 228.844 151.259ZM226.985 151.282C226.998 150.43 226.84 149.585 226.521 148.795C226.201 148.006 225.726 147.289 225.124 146.687C224.521 146.085 223.804 145.609 223.015 145.29C222.226 144.97 221.38 144.812 220.528 144.825H215.905V157.694H220.593C221.437 157.706 222.275 157.549 223.057 157.231C223.84 156.913 224.55 156.441 225.146 155.843C225.742 155.245 226.212 154.534 226.527 153.751C226.843 152.968 226.997 152.129 226.982 151.285L226.985 151.282Z" fill="url(#paint3_linear)"/>
<path d="M234.003 143.643C233.991 143.873 233.911 144.094 233.774 144.279C233.637 144.463 233.449 144.604 233.234 144.683C233.018 144.762 232.783 144.776 232.56 144.724C232.336 144.671 232.132 144.554 231.974 144.387C231.816 144.22 231.711 144.01 231.671 143.784C231.631 143.557 231.658 143.324 231.749 143.113C231.84 142.902 231.991 142.722 232.183 142.596C232.375 142.47 232.6 142.402 232.83 142.403C232.989 142.403 233.147 142.437 233.294 142.5C233.44 142.564 233.572 142.656 233.682 142.772C233.791 142.888 233.876 143.025 233.932 143.175C233.987 143.325 234.011 143.484 234.003 143.643ZM233.723 147.161V159.415H231.954V147.161H233.723Z" fill="url(#paint4_linear)"/>
<path d="M237.92 147.161L241.785 157.582L245.623 147.161H247.442L242.669 159.415H240.811L236.002 147.161H237.92Z" fill="url(#paint5_linear)"/>
<path d="M259.608 153.971H249.721C249.795 155.077 250.293 156.112 251.112 156.859C251.931 157.606 253.006 158.008 254.115 157.98C254.813 157.993 255.507 157.861 256.152 157.593C256.797 157.324 257.38 156.924 257.862 156.419L258.85 157.466C258.23 158.134 257.474 158.66 256.632 159.009C255.791 159.359 254.885 159.524 253.974 159.493C252.369 159.437 250.849 158.761 249.732 157.607C248.616 156.452 247.99 154.91 247.987 153.304C247.984 151.698 248.604 150.154 249.717 148.996C250.829 147.837 252.347 147.156 253.952 147.094C257.862 147.082 259.794 149.814 259.608 153.971ZM258 152.526C258.011 151.996 257.914 151.47 257.713 150.98C257.512 150.491 257.212 150.047 256.832 149.679C256.452 149.31 256 149.023 255.505 148.837C255.009 148.651 254.481 148.568 253.952 148.595C252.872 148.564 251.823 148.959 251.032 149.694C250.24 150.429 249.769 151.446 249.721 152.526H258Z" fill="url(#paint6_linear)"/>
<path d="M268.836 147.082V148.859C268.281 148.819 267.724 148.893 267.199 149.077C266.674 149.261 266.193 149.551 265.785 149.929C265.377 150.308 265.052 150.766 264.828 151.275C264.605 151.784 264.489 152.334 264.487 152.891V159.415H262.696V147.161H264.487V149.884C264.839 149.029 265.445 148.302 266.222 147.801C267 147.3 267.912 147.049 268.836 147.082Z" fill="url(#paint7_linear)"/>
<path d="M274.361 148.593C273.007 148.593 271.974 149.081 271.974 150.255C271.974 153.023 278.732 151.611 278.732 156.007C278.732 158.41 276.62 159.479 274.293 159.479C272.583 159.511 270.924 158.896 269.647 157.758L270.338 156.425C271.443 157.419 272.874 157.974 274.361 157.986C275.787 157.986 276.938 157.424 276.96 156.198C277.027 153.216 270.248 154.729 270.27 150.392C270.27 148.057 272.272 147.054 274.481 147.054C275.851 147.047 277.194 147.437 278.347 148.177L277.656 149.567C276.668 148.945 275.528 148.608 274.361 148.593Z" fill="url(#paint8_linear)"/>
<path d="M283.729 143.643C283.74 143.804 283.718 143.966 283.664 144.118C283.61 144.27 283.525 144.409 283.415 144.527C283.305 144.645 283.172 144.739 283.024 144.803C282.876 144.868 282.716 144.901 282.555 144.901C282.394 144.901 282.234 144.868 282.086 144.803C281.938 144.739 281.805 144.645 281.695 144.527C281.585 144.409 281.5 144.27 281.447 144.118C281.393 143.966 281.371 143.804 281.382 143.643C281.371 143.483 281.393 143.321 281.447 143.169C281.5 143.017 281.585 142.878 281.695 142.76C281.805 142.642 281.938 142.548 282.086 142.483C282.234 142.419 282.394 142.386 282.555 142.386C282.716 142.386 282.876 142.419 283.024 142.483C283.172 142.548 283.305 142.642 283.415 142.76C283.525 142.878 283.61 143.017 283.664 143.169C283.718 143.321 283.74 143.483 283.729 143.643ZM283.448 147.161V159.415H281.679V147.161H283.448Z" fill="url(#paint9_linear)"/>
<path d="M294.079 158.584C293.28 159.156 292.325 159.47 291.342 159.482C289.573 159.504 288.254 158.435 288.254 156.009V148.949H286.508V147.526H288.254V144.314H290.031V147.526H293.868V148.949H290.031V155.712C290.031 157.203 290.592 157.809 291.637 157.809C292.323 157.767 292.988 157.552 293.568 157.183L294.079 158.584Z" fill="url(#paint10_linear)"/>
<path d="M297.027 164.005C296.098 164.034 295.191 163.723 294.478 163.129L295.235 161.683C295.724 162.058 296.321 162.262 296.937 162.264C297.444 162.235 297.929 162.048 298.325 161.73C298.721 161.411 299.007 160.977 299.143 160.487L299.648 159.325L294.632 147.164H296.518L300.541 157.368L304.384 147.164H306.229L300.662 161.169C300.436 161.967 299.961 162.671 299.308 163.181C298.654 163.691 297.855 163.979 297.027 164.005Z" fill="url(#paint11_linear)"/>
<path d="M317.346 143.096V157.694H324.4V159.412H315.501V143.093L317.346 143.096Z" fill="url(#paint12_linear)"/>
<path d="M329.192 143.643C329.18 143.873 329.1 144.094 328.963 144.279C328.826 144.463 328.638 144.604 328.423 144.683C328.207 144.762 327.972 144.776 327.749 144.724C327.525 144.671 327.321 144.554 327.163 144.387C327.005 144.22 326.9 144.01 326.86 143.784C326.819 143.557 326.847 143.324 326.938 143.113C327.029 142.902 327.18 142.722 327.372 142.596C327.564 142.47 327.789 142.402 328.019 142.403C328.178 142.403 328.336 142.437 328.483 142.5C328.629 142.564 328.761 142.656 328.871 142.772C328.98 142.888 329.065 143.025 329.121 143.175C329.176 143.325 329.2 143.484 329.192 143.643ZM328.911 147.161V159.415H327.143V147.161H328.911Z" fill="url(#paint13_linear)"/>
<path d="M345.688 153.309C345.753 154.102 345.652 154.9 345.391 155.652C345.129 156.404 344.714 157.092 344.171 157.674C343.627 158.256 342.968 158.717 342.236 159.029C341.504 159.341 340.715 159.496 339.919 159.485C338.957 159.529 338.003 159.299 337.168 158.821C336.332 158.343 335.65 157.638 335.2 156.787V159.417H333.406V142.125H335.2V149.8C335.642 148.953 336.316 148.249 337.142 147.77C337.968 147.29 338.914 147.055 339.868 147.091C340.669 147.083 341.462 147.242 342.199 147.557C342.935 147.872 343.597 148.336 344.144 148.921C344.692 149.506 345.111 150.197 345.377 150.953C345.643 151.708 345.748 152.51 345.688 153.309ZM343.871 153.264C343.819 152.417 343.52 151.603 343.011 150.924C342.502 150.245 341.805 149.73 341.007 149.442C340.208 149.155 339.343 149.107 338.518 149.305C337.693 149.504 336.944 149.94 336.363 150.559C335.783 151.178 335.397 151.954 335.252 152.79C335.107 153.626 335.211 154.487 335.549 155.265C335.888 156.043 336.447 156.705 337.158 157.169C337.869 157.633 338.7 157.879 339.548 157.876C340.141 157.877 340.728 157.756 341.272 157.521C341.816 157.286 342.306 156.941 342.711 156.509C343.117 156.076 343.429 155.565 343.628 155.007C343.828 154.449 343.911 153.855 343.871 153.264Z" fill="url(#paint14_linear)"/>
<path d="M359.286 153.971H349.394C349.469 155.077 349.968 156.11 350.786 156.857C351.605 157.604 352.679 158.006 353.787 157.98C354.487 157.994 355.181 157.862 355.827 157.594C356.474 157.325 357.057 156.925 357.54 156.419L358.528 157.466C357.908 158.133 357.151 158.659 356.31 159.008C355.469 159.358 354.563 159.523 353.652 159.493C352.047 159.437 350.527 158.761 349.41 157.607C348.294 156.452 347.668 154.91 347.665 153.304C347.662 151.698 348.282 150.154 349.395 148.996C350.507 147.837 352.025 147.156 353.63 147.094C357.537 147.082 359.466 149.814 359.286 153.971ZM357.675 152.526C357.687 151.996 357.59 151.47 357.39 150.98C357.189 150.49 356.89 150.047 356.51 149.678C356.13 149.309 355.678 149.022 355.183 148.836C354.687 148.65 354.159 148.568 353.63 148.595C352.549 148.563 351.499 148.958 350.707 149.693C349.914 150.428 349.442 151.446 349.394 152.526H357.675Z" fill="url(#paint15_linear)"/>
<path d="M368.506 147.082V148.859C367.951 148.818 367.393 148.892 366.868 149.076C366.343 149.26 365.862 149.55 365.454 149.929C365.046 150.307 364.72 150.765 364.497 151.275C364.274 151.784 364.158 152.334 364.157 152.891V159.415H362.366V147.161H364.157V149.884C364.508 149.028 365.113 148.3 365.89 147.799C366.668 147.298 367.581 147.048 368.506 147.082Z" fill="url(#paint16_linear)"/>
<path d="M377.186 158.584C376.388 159.156 375.433 159.469 374.451 159.482C372.683 159.504 371.363 158.435 371.363 156.009V148.949H369.617V147.526H371.363V144.314H373.138V147.526H376.975V148.949H373.138V155.712C373.138 157.203 373.699 157.809 374.743 157.809C375.431 157.767 376.096 157.552 376.678 157.183L377.186 158.584Z" fill="url(#paint17_linear)"/>
<path d="M380.136 164.005C379.206 164.035 378.297 163.724 377.581 163.129L378.339 161.683C378.828 162.056 379.425 162.26 380.04 162.264C380.548 162.236 381.034 162.049 381.431 161.73C381.827 161.412 382.113 160.977 382.25 160.487L382.755 159.325L377.744 147.164H379.631L383.653 157.368L387.497 147.164H389.333L383.766 161.169C383.54 161.966 383.066 162.67 382.414 163.18C381.761 163.689 380.964 163.978 380.136 164.005Z" fill="url(#paint18_linear)"/>
<path d="M409.534 143.096V144.825H400.449V150.302H408.565V151.987H400.449V157.68H409.828V159.398H398.599V143.079L409.534 143.096Z" fill="url(#paint19_linear)"/>
<path d="M424.468 147.158V163.932H422.672V156.782C422.228 157.638 421.548 158.349 420.713 158.832C419.878 159.314 418.922 159.548 417.958 159.505C416.372 159.412 414.881 158.718 413.79 157.563C412.698 156.408 412.089 154.88 412.086 153.291C412.083 151.702 412.687 150.172 413.774 149.014C414.861 147.855 416.35 147.155 417.936 147.057C418.907 147.012 419.87 147.249 420.71 147.738C421.55 148.227 422.231 148.947 422.672 149.814V147.161L424.468 147.158ZM422.672 153.306C422.623 152.45 422.324 151.628 421.813 150.94C421.301 150.252 420.6 149.729 419.794 149.436C418.989 149.142 418.115 149.092 417.281 149.289C416.447 149.487 415.689 149.926 415.102 150.55C414.514 151.173 414.122 151.956 413.974 152.8C413.827 153.645 413.93 154.514 414.271 155.3C414.612 156.087 415.176 156.756 415.893 157.225C416.61 157.695 417.449 157.943 418.306 157.941C418.903 157.943 419.494 157.823 420.042 157.588C420.591 157.352 421.085 157.007 421.494 156.572C421.903 156.138 422.219 155.624 422.422 155.063C422.624 154.501 422.709 153.904 422.672 153.309V153.306Z" fill="url(#paint20_linear)"/>
<path d="M439.473 147.161V159.415H437.677V156.636C437.307 157.532 436.664 158.289 435.839 158.799C435.013 159.308 434.048 159.543 433.081 159.471C432.455 159.51 431.828 159.411 431.244 159.181C430.66 158.952 430.133 158.597 429.701 158.142C429.269 157.687 428.942 157.143 428.742 156.548C428.543 155.953 428.476 155.322 428.547 154.698V147.147H430.344V154.23C430.293 154.689 430.344 155.154 430.492 155.591C430.641 156.029 430.884 156.428 431.204 156.762C431.524 157.095 431.913 157.354 432.344 157.521C432.775 157.687 433.238 157.757 433.699 157.725C434.27 157.717 434.834 157.589 435.352 157.348C435.871 157.108 436.333 156.761 436.708 156.33C437.084 155.899 437.364 155.394 437.531 154.847C437.698 154.3 437.747 153.724 437.677 153.157V147.144L439.473 147.161Z" fill="url(#paint21_linear)"/>
<path d="M451.373 159.415V157.5C450.851 158.168 450.173 158.699 449.398 159.044C448.623 159.39 447.776 159.54 446.929 159.482C446.412 159.532 445.889 159.473 445.395 159.311C444.901 159.148 444.446 158.884 444.059 158.536C443.673 158.188 443.363 157.764 443.149 157.29C442.935 156.816 442.822 156.302 442.817 155.782C442.817 153.643 444.501 152.287 447.345 152.265H451.323V151.49C451.323 149.701 450.222 148.598 448.08 148.598C446.682 148.653 445.338 149.151 444.243 150.021L443.479 148.747C444.9 147.661 446.64 147.077 448.428 147.085C449.022 147.001 449.627 147.048 450.2 147.223C450.774 147.398 451.302 147.697 451.747 148.099C452.193 148.5 452.544 148.995 452.777 149.547C453.011 150.1 453.12 150.697 453.097 151.296L453.119 159.403L451.373 159.415ZM451.345 155.204V153.713H447.575C445.554 153.713 444.487 154.339 444.487 155.717C444.487 157.096 445.565 157.963 447.269 157.963C448.163 158.044 449.057 157.813 449.8 157.31C450.543 156.806 451.089 156.061 451.345 155.201V155.204Z" fill="url(#paint22_linear)"/>
<path d="M459.034 142.125V159.42H457.238V142.125H459.034Z" fill="url(#paint23_linear)"/>
<path d="M465.567 143.643C465.578 143.804 465.556 143.965 465.502 144.117C465.448 144.268 465.364 144.407 465.254 144.525C465.144 144.643 465.012 144.737 464.864 144.801C464.716 144.865 464.557 144.898 464.396 144.898C464.235 144.898 464.076 144.865 463.929 144.801C463.781 144.737 463.648 144.643 463.538 144.525C463.428 144.407 463.344 144.268 463.29 144.117C463.236 143.965 463.214 143.804 463.226 143.643C463.214 143.483 463.236 143.322 463.29 143.17C463.344 143.018 463.428 142.879 463.538 142.762C463.648 142.644 463.781 142.55 463.929 142.486C464.076 142.422 464.235 142.389 464.396 142.389C464.557 142.389 464.716 142.422 464.864 142.486C465.012 142.55 465.144 142.644 465.254 142.762C465.364 142.879 465.448 143.018 465.502 143.17C465.556 143.322 465.578 143.483 465.567 143.643ZM465.286 147.161V159.415H463.518V147.161H465.286Z" fill="url(#paint24_linear)"/>
<path d="M475.912 158.584C475.113 159.156 474.157 159.47 473.175 159.482C471.406 159.504 470.086 158.435 470.086 156.009V148.949H468.34V147.526H470.086V144.314H471.855V147.526H475.698V148.949H471.855V155.712C471.855 157.203 472.417 157.809 473.461 157.809C474.147 157.768 474.812 157.553 475.392 157.183L475.912 158.584Z" fill="url(#paint25_linear)"/>
<path d="M478.868 164.005C477.938 164.034 477.029 163.723 476.313 163.129L477.077 161.683C477.56 162.054 478.151 162.258 478.761 162.264C479.268 162.235 479.754 162.048 480.15 161.73C480.545 161.411 480.831 160.977 480.968 160.487L481.479 159.325L476.462 147.164H478.348L482.371 157.368L486.214 147.164H488.05L482.489 161.169C482.263 161.964 481.79 162.667 481.14 163.176C480.489 163.686 479.694 163.976 478.868 164.005Z" fill="url(#paint26_linear)"/>
<path d="M46.1011 28.023C20.0215 29.0308 0.00561486 52.1206 0.00561486 78.5736V139.191C-0.0353832 140.304 0.14847 141.414 0.546187 142.455C0.943903 143.495 1.54732 144.445 2.32037 145.247C3.09342 146.049 4.02023 146.687 5.04542 147.123C6.07061 147.559 7.17313 147.783 8.28707 147.783C9.40102 147.783 10.5035 147.559 11.5287 147.123C12.5539 146.687 13.4807 146.049 14.2538 145.247C15.0268 144.445 15.6302 143.495 16.028 142.455C16.4257 141.414 16.6095 140.304 16.5685 139.191V116.006C16.5638 115.766 16.6282 115.529 16.7542 115.325C16.8802 115.12 17.0623 114.956 17.279 114.852C17.4956 114.748 17.7376 114.709 17.976 114.739C18.2144 114.769 18.4391 114.866 18.6235 115.02C23.7807 119.102 29.7317 122.065 36.0973 123.719C42.4628 125.374 49.1032 125.684 55.5953 124.63C67.703 122.531 78.5685 115.929 86.0105 106.151C93.4525 96.3722 96.9201 84.1405 95.7173 71.9112C94.5144 59.6819 88.73 48.3603 79.5254 40.2191C70.3208 32.078 58.3773 27.7201 46.0926 28.0202L46.1011 28.023ZM47.9791 105.15C42.3184 105.226 36.7628 103.618 32.0189 100.528C27.2749 97.4386 23.5569 93.0081 21.3376 87.8C19.1182 82.5919 18.4978 76.8414 19.5553 71.2798C20.6128 65.7182 23.3003 60.5967 27.2762 56.5665C31.252 52.5364 36.3366 49.7796 41.8834 48.6468C47.4301 47.5139 53.1885 48.0562 58.4262 50.2047C63.664 52.3532 68.1444 56.0108 71.298 60.7124C74.4515 65.414 76.1356 70.9473 76.1361 76.6085C76.1861 84.1269 73.248 91.3574 67.9677 96.7098C62.6875 102.062 55.4975 105.098 47.9791 105.15Z" fill="url(#paint27_linear)"/>
<path d="M338.032 5.76971C336.94 5.77706 335.861 5.99939 334.855 6.42407C333.849 6.84875 332.936 7.46745 332.169 8.2448C331.402 9.02215 330.796 9.94295 330.385 10.9546C329.974 11.9663 329.766 13.049 329.773 14.141V36.456C329.778 36.7674 329.693 37.0734 329.529 37.3383C329.366 37.6032 329.13 37.8158 328.85 37.9514C328.569 38.087 328.256 38.1398 327.947 38.1037C327.638 38.0675 327.345 37.9439 327.104 37.7474C322.004 33.8468 316.162 31.0283 309.935 29.4643C303.708 27.9003 297.227 27.6239 290.89 28.6518C278.811 30.7306 267.966 37.3054 260.537 47.0544C253.108 56.8033 249.645 69.0034 250.845 81.2015C252.045 93.3996 257.819 104.691 267.005 112.806C276.191 120.92 288.109 125.256 300.362 124.941C326.354 123.936 346.3 100.922 346.3 74.5592V14.1466C346.308 13.0535 346.101 11.9695 345.689 10.9566C345.278 9.94373 344.671 9.02187 343.903 8.24381C343.135 7.46576 342.222 6.84677 341.214 6.42223C340.207 5.99769 339.126 5.77596 338.032 5.76971ZM298.481 104.954C292.839 105.028 287.303 103.422 282.576 100.342C277.849 97.2614 274.145 92.8448 271.935 87.6538C269.725 82.4627 269.108 76.7317 270.163 71.1892C271.219 65.6467 273.898 60.5433 277.862 56.5277C281.825 52.5121 286.893 49.7658 292.421 48.6379C297.949 47.51 303.688 48.0515 308.907 50.1936C314.127 52.3356 318.591 55.9815 321.734 60.6675C324.876 65.3536 326.554 70.8682 326.554 76.5102C326.578 80.2212 325.872 83.9008 324.474 87.3387C323.077 90.7766 321.016 93.9056 318.409 96.5469C315.802 99.1882 312.7 101.29 309.281 102.732C305.862 104.175 302.192 104.93 298.481 104.954Z" fill="url(#paint28_linear)"/>
<path d="M120.213 27.9837C118.016 27.9688 115.904 28.8269 114.34 30.3694C112.776 31.9119 111.888 34.0124 111.873 36.209V116.741C111.873 118.953 112.751 121.075 114.316 122.639C115.88 124.203 118.001 125.082 120.213 125.082C122.425 125.082 124.547 124.203 126.111 122.639C127.675 121.075 128.554 118.953 128.554 116.741V36.209C128.538 34.0124 127.651 31.9119 126.086 30.3694C124.522 28.8269 122.41 27.9688 120.213 27.9837Z" fill="url(#paint29_linear)"/>
<path d="M372.727 5.76971C368.166 5.76971 364.468 10.295 364.468 15.8759V114.858C364.468 120.441 368.166 124.964 372.727 124.964C377.289 124.964 380.984 120.438 380.984 114.858V15.8787C380.984 10.2866 377.292 5.76971 372.727 5.76971Z" fill="url(#paint30_linear)"/>
<path d="M191.465 27.9837C179.929 28.0646 168.897 32.7232 160.795 40.9354C152.693 49.1476 148.183 60.2411 148.258 71.7772V116.514C148.258 118.726 149.137 120.847 150.701 122.411C152.265 123.976 154.386 124.854 156.598 124.854C158.81 124.854 160.932 123.976 162.496 122.411C164.06 120.847 164.939 118.726 164.939 116.514V71.7772C164.939 64.7413 167.734 57.9936 172.709 53.0185C177.684 48.0434 184.432 45.2484 191.468 45.2484C198.503 45.2484 205.251 48.0434 210.226 53.0185C215.201 57.9936 217.996 64.7413 217.996 71.7772V116.514C217.996 118.726 218.875 120.847 220.439 122.411C222.003 123.976 224.125 124.854 226.337 124.854C228.549 124.854 230.67 123.976 232.234 122.411C233.798 120.847 234.677 118.726 234.677 116.514V71.7772C234.752 60.2402 230.242 49.1458 222.138 40.9334C214.035 32.7211 203.002 28.0631 191.465 27.9837Z" fill="url(#paint31_linear)"/>
<path d="M120.213 0.000783746C118.536 -0.0220484 116.89 0.454442 115.484 1.36968C114.079 2.28492 112.977 3.59757 112.319 5.14063C111.662 6.68368 111.478 8.38744 111.791 10.0352C112.105 11.683 112.901 13.2004 114.079 14.3944C115.257 15.5883 116.764 16.4049 118.407 16.7403C120.051 17.0757 121.757 16.9146 123.309 16.2778C124.86 15.6409 126.188 14.5569 127.121 13.1637C128.055 11.7704 128.554 10.1308 128.553 8.45349C128.568 6.22679 127.697 4.08558 126.133 2.50054C124.569 0.915504 122.44 0.0163674 120.213 0.000783746Z" fill="url(#paint32_linear)"/>
<path d="M488.699 54.6164C484.827 47.3712 479.155 41.2456 472.228 36.8299C465.301 32.4142 457.353 29.8572 449.151 29.4055C440.949 28.9539 432.768 30.6227 425.398 34.2512C418.029 37.8797 411.718 43.3454 407.074 50.1216C402.43 56.8978 399.61 64.756 398.886 72.9387C398.162 81.1214 399.557 89.3527 402.939 96.8393C406.32 104.326 411.573 110.815 418.191 115.682C424.809 120.548 432.569 123.628 440.723 124.624C448.923 125.621 457.242 124.456 464.854 121.245C472.465 118.035 479.105 112.89 484.115 106.321C484.718 105.538 485.311 104.749 485.867 103.929C486.568 102.67 486.991 101.275 487.106 99.8379C487.221 98.4011 487.026 96.9564 486.534 95.6017C486.041 94.247 485.263 93.014 484.253 91.9864C483.242 90.9587 482.022 90.1604 480.676 89.6456C478.417 88.7402 475.897 88.7402 473.638 89.6456C471.722 90.3756 470.076 91.677 468.925 93.3736L468.88 93.4297C466.075 97.3356 462.298 100.441 457.925 102.44C453.551 104.438 448.731 105.26 443.942 104.824C439.153 104.388 434.561 102.709 430.62 99.9531C426.68 97.1974 423.527 93.4605 421.473 89.1122C421.278 88.7473 421.179 88.3385 421.186 87.9246C421.193 87.5107 421.306 87.1055 421.514 86.7475C421.722 86.3896 422.018 86.0908 422.374 85.8797C422.73 85.6685 423.134 85.5521 423.548 85.5413H480.771C482.641 85.5446 484.49 85.1525 486.197 84.3906C487.904 83.6287 489.431 82.5143 490.677 81.1206C491.923 79.7269 492.86 78.0853 493.427 76.3038C493.994 74.5222 494.177 72.6409 493.966 70.7835C493.211 65.1182 491.426 59.6389 488.699 54.6164ZM469.977 67.4119H423.029C422.691 67.4118 422.358 67.3283 422.06 67.169C421.762 67.0097 421.508 66.7794 421.321 66.4984C421.133 66.2175 421.018 65.8946 420.984 65.5585C420.951 65.2223 421.002 64.8831 421.131 64.571C423.298 59.6478 426.851 55.4615 431.356 52.5225C435.861 49.5834 441.124 48.0185 446.503 48.0185C451.882 48.0185 457.145 49.5834 461.65 52.5225C466.155 55.4615 469.708 59.6478 471.875 64.571C472.004 64.8831 472.055 65.2223 472.021 65.5585C471.988 65.8946 471.873 66.2175 471.685 66.4984C471.498 66.7794 471.244 67.0097 470.946 67.169C470.648 67.3283 470.315 67.4118 469.977 67.4119Z" fill="url(#paint33_linear)"/>
<defs>
<linearGradient id="paint0_linear" x1="176.687" y1="143.093" x2="176.687" y2="159.412" gradientUnits="userSpaceOnUse">
<stop stop-color="#0273B3"/>
<stop offset="1" stop-color="#6BBDC8"/>
</linearGradient>
<linearGradient id="paint1_linear" x1="186.537" y1="142.403" x2="186.537" y2="159.415" gradientUnits="userSpaceOnUse">
<stop stop-color="#0273B3"/>
<stop offset="1" stop-color="#6BBDC8"/>
</linearGradient>
<linearGradient id="paint2_linear" x1="197.371" y1="147.067" x2="197.371" y2="159.415" gradientUnits="userSpaceOnUse">
<stop stop-color="#0273B3"/>
<stop offset="1" stop-color="#6BBDC8"/>
</linearGradient>
<linearGradient id="paint3_linear" x1="221.452" y1="143.079" x2="221.452" y2="159.405" gradientUnits="userSpaceOnUse">
<stop stop-color="#0273B3"/>
<stop offset="1" stop-color="#6BBDC8"/>
</linearGradient>
<linearGradient id="paint4_linear" x1="232.829" y1="142.403" x2="232.829" y2="159.415" gradientUnits="userSpaceOnUse">
<stop stop-color="#0273B3"/>
<stop offset="1" stop-color="#6BBDC8"/>
</linearGradient>
<linearGradient id="paint5_linear" x1="241.722" y1="147.161" x2="241.722" y2="159.415" gradientUnits="userSpaceOnUse">
<stop stop-color="#0273B3"/>
<stop offset="1" stop-color="#6BBDC8"/>
</linearGradient>
<linearGradient id="paint6_linear" x1="253.804" y1="147.094" x2="253.804" y2="159.497" gradientUnits="userSpaceOnUse">
<stop stop-color="#0273B3"/>
<stop offset="1" stop-color="#6BBDC8"/>
</linearGradient>
<linearGradient id="paint7_linear" x1="265.766" y1="147.079" x2="265.766" y2="159.415" gradientUnits="userSpaceOnUse">
<stop stop-color="#0273B3"/>
<stop offset="1" stop-color="#6BBDC8"/>
</linearGradient>
<linearGradient id="paint8_linear" x1="274.189" y1="147.054" x2="274.189" y2="159.48" gradientUnits="userSpaceOnUse">
<stop stop-color="#0273B3"/>
<stop offset="1" stop-color="#6BBDC8"/>
</linearGradient>
<linearGradient id="paint9_linear" x1="282.555" y1="142.386" x2="282.555" y2="159.415" gradientUnits="userSpaceOnUse">
<stop stop-color="#0273B3"/>
<stop offset="1" stop-color="#6BBDC8"/>
</linearGradient>
<linearGradient id="paint10_linear" x1="290.293" y1="144.314" x2="290.293" y2="159.482" gradientUnits="userSpaceOnUse">
<stop stop-color="#0273B3"/>
<stop offset="1" stop-color="#6BBDC8"/>
</linearGradient>
<linearGradient id="paint11_linear" x1="300.353" y1="147.164" x2="300.353" y2="164.007" gradientUnits="userSpaceOnUse">
<stop stop-color="#0273B3"/>
<stop offset="1" stop-color="#6BBDC8"/>
</linearGradient>
<linearGradient id="paint12_linear" x1="319.951" y1="143.093" x2="319.951" y2="159.412" gradientUnits="userSpaceOnUse">
<stop stop-color="#0273B3"/>
<stop offset="1" stop-color="#6BBDC8"/>
</linearGradient>
<linearGradient id="paint13_linear" x1="328.018" y1="142.403" x2="328.018" y2="159.415" gradientUnits="userSpaceOnUse">
<stop stop-color="#0273B3"/>
<stop offset="1" stop-color="#6BBDC8"/>
</linearGradient>
<linearGradient id="paint14_linear" x1="339.556" y1="142.125" x2="339.556" y2="159.49" gradientUnits="userSpaceOnUse">
<stop stop-color="#0273B3"/>
<stop offset="1" stop-color="#6BBDC8"/>
</linearGradient>
<linearGradient id="paint15_linear" x1="353.482" y1="147.094" x2="353.482" y2="159.497" gradientUnits="userSpaceOnUse">
<stop stop-color="#0273B3"/>
<stop offset="1" stop-color="#6BBDC8"/>
</linearGradient>
<linearGradient id="paint16_linear" x1="365.436" y1="147.079" x2="365.436" y2="159.415" gradientUnits="userSpaceOnUse">
<stop stop-color="#0273B3"/>
<stop offset="1" stop-color="#6BBDC8"/>
</linearGradient>
<linearGradient id="paint17_linear" x1="373.401" y1="144.314" x2="373.401" y2="159.482" gradientUnits="userSpaceOnUse">
<stop stop-color="#0273B3"/>
<stop offset="1" stop-color="#6BBDC8"/>
</linearGradient>
<linearGradient id="paint18_linear" x1="383.457" y1="147.164" x2="383.457" y2="164.007" gradientUnits="userSpaceOnUse">
<stop stop-color="#0273B3"/>
<stop offset="1" stop-color="#6BBDC8"/>
</linearGradient>
<linearGradient id="paint19_linear" x1="404.214" y1="143.079" x2="404.214" y2="159.398" gradientUnits="userSpaceOnUse">
<stop stop-color="#0273B3"/>
<stop offset="1" stop-color="#6BBDC8"/>
</linearGradient>
<linearGradient id="paint20_linear" x1="418.277" y1="147.052" x2="418.277" y2="163.932" gradientUnits="userSpaceOnUse">
<stop stop-color="#0273B3"/>
<stop offset="1" stop-color="#6BBDC8"/>
</linearGradient>
<linearGradient id="paint21_linear" x1="433.996" y1="147.144" x2="433.996" y2="159.484" gradientUnits="userSpaceOnUse">
<stop stop-color="#0273B3"/>
<stop offset="1" stop-color="#6BBDC8"/>
</linearGradient>
<linearGradient id="paint22_linear" x1="447.968" y1="147.044" x2="447.968" y2="159.499" gradientUnits="userSpaceOnUse">
<stop stop-color="#0273B3"/>
<stop offset="1" stop-color="#6BBDC8"/>
</linearGradient>
<linearGradient id="paint23_linear" x1="458.136" y1="142.125" x2="458.136" y2="159.42" gradientUnits="userSpaceOnUse">
<stop stop-color="#0273B3"/>
<stop offset="1" stop-color="#6BBDC8"/>
</linearGradient>
<linearGradient id="paint24_linear" x1="464.396" y1="142.389" x2="464.396" y2="159.415" gradientUnits="userSpaceOnUse">
<stop stop-color="#0273B3"/>
<stop offset="1" stop-color="#6BBDC8"/>
</linearGradient>
<linearGradient id="paint25_linear" x1="472.126" y1="144.314" x2="472.126" y2="159.482" gradientUnits="userSpaceOnUse">
<stop stop-color="#0273B3"/>
<stop offset="1" stop-color="#6BBDC8"/>
</linearGradient>
<linearGradient id="paint26_linear" x1="482.182" y1="147.164" x2="482.182" y2="164.007" gradientUnits="userSpaceOnUse">
<stop stop-color="#0273B3"/>
<stop offset="1" stop-color="#6BBDC8"/>
</linearGradient>
<linearGradient id="paint27_linear" x1="47.9756" y1="28.0057" x2="47.9756" y2="147.783" gradientUnits="userSpaceOnUse">
<stop stop-color="#0273B3"/>
<stop offset="1" stop-color="#6BBDC8"/>
</linearGradient>
<linearGradient id="paint28_linear" x1="298.456" y1="5.76971" x2="298.456" y2="124.957" gradientUnits="userSpaceOnUse">
<stop stop-color="#0273B3"/>
<stop offset="1" stop-color="#6BBDC8"/>
</linearGradient>
<linearGradient id="paint29_linear" x1="120.213" y1="27.9836" x2="120.213" y2="125.082" gradientUnits="userSpaceOnUse">
<stop stop-color="#0273B3"/>
<stop offset="1" stop-color="#6BBDC8"/>
</linearGradient>
<linearGradient id="paint30_linear" x1="372.726" y1="5.76971" x2="372.726" y2="124.964" gradientUnits="userSpaceOnUse">
<stop stop-color="#0273B3"/>
<stop offset="1" stop-color="#6BBDC8"/>
</linearGradient>
<linearGradient id="paint31_linear" x1="191.468" y1="27.9837" x2="191.468" y2="124.854" gradientUnits="userSpaceOnUse">
<stop stop-color="#0273B3"/>
<stop offset="1" stop-color="#6BBDC8"/>
</linearGradient>
<linearGradient id="paint32_linear" x1="120.098" y1="0" x2="120.098" y2="16.911" gradientUnits="userSpaceOnUse">
<stop stop-color="#0273B3"/>
<stop offset="1" stop-color="#6BBDC8"/>
</linearGradient>
<linearGradient id="paint33_linear" x1="446.375" y1="29.3332" x2="446.375" y2="124.97" gradientUnits="userSpaceOnUse">
<stop stop-color="#0273B3"/>
<stop offset="1" stop-color="#6BBDC8"/>
</linearGradient>
</defs>
</svg>
