<svg width="80" height="80" viewBox="0 0 80 80" fill="none" xmlns="http://www.w3.org/2000/svg">
<path d="M40 80C62.0914 80 80 62.0914 80 40C80 17.9086 62.0914 0 40 0C17.9086 0 0 17.9086 0 40C0 62.0914 17.9086 80 40 80Z" fill="#0057D9"/>
<path fill-rule="evenodd" clip-rule="evenodd" d="M39.9381 40.0618C44.3735 40.0618 47.969 36.4663 47.969 32.0309C47.969 27.5956 44.3735 24 39.9381 24C35.5028 24 31.9072 27.5956 31.9072 32.0309C31.9072 36.4663 35.5028 40.0618 39.9381 40.0618Z" fill="white"/>
<path fill-rule="evenodd" clip-rule="evenodd" d="M27 51.1644C27 46.2883 30.9529 42.3354 35.829 42.3354H44.0484C48.9245 42.3354 52.8774 46.2883 52.8774 51.1644V54.7113C52.8774 55.2685 52.4256 55.7203 51.8683 55.7203H28.009C27.4518 55.7203 27 55.2685 27 54.7113V51.1644Z" fill="white"/>
</svg>
