<svg width="210" height="62" viewBox="0 0 210 62" fill="none" xmlns="http://www.w3.org/2000/svg">
<path d="M210 55.7852C210 59.2185 207.296 62 203.952 62H6.05606C2.71381 62 0 59.2185 0 55.7852V6.22269C0 2.79203 2.71381 0 6.05606 0H203.952C207.296 0 210 2.79203 210 6.22269V55.7852Z" fill="black"/>
<path d="M44.4461 30.6596C44.3986 25.4291 48.7292 22.8852 48.9271 22.7664C46.4755 19.1906 42.6754 18.7024 41.34 18.6654C38.1469 18.3303 35.0514 20.5761 33.4258 20.5761C31.7685 20.5761 29.2641 18.6998 26.5644 18.7525C23.0915 18.8053 19.843 20.8162 18.0617 23.9381C14.3856 30.3033 17.1275 39.6585 20.6505 44.8045C22.4133 47.3273 24.4717 50.1378 27.1661 50.0402C29.8025 49.932 30.7868 48.3618 33.9694 48.3618C37.123 48.3618 38.0466 50.0402 40.7964 49.9769C43.6254 49.932 45.4093 47.4461 47.1088 44.9021C49.1461 42.0151 49.9642 39.1703 49.9959 39.0225C49.9299 39.0014 44.5015 36.9271 44.4461 30.6596Z" fill="white"/>
<path d="M39.2525 15.2796C40.6697 13.5062 41.6408 11.0942 41.3716 8.64526C39.3185 8.73499 36.7508 10.065 35.273 11.7988C33.964 13.3268 32.7976 15.8338 33.0985 18.1904C35.4049 18.362 37.7721 17.0266 39.2525 15.2796Z" fill="white"/>
<path d="M82.6399 49.6787H78.9559L76.9371 43.3346H69.92L67.9962 49.6787H64.4072L71.3609 28.084H75.6545L82.6399 49.6787ZM76.3275 40.6745L74.5013 35.035C74.3086 34.4597 73.9445 33.1033 73.4114 30.9657H73.3454C73.1317 31.8841 72.7886 33.2405 72.3189 35.035L70.5244 40.6745H76.3275Z" fill="white"/>
<path d="M100.485 41.7011C100.485 44.3506 99.7668 46.4433 98.3259 47.9792C97.0381 49.3462 95.4363 50.0297 93.5257 50.0297C91.462 50.0297 89.9789 49.2934 89.079 47.8209V55.9911H85.6193V39.2231C85.6193 37.5605 85.5744 35.8531 85.49 34.1061H88.5327L88.7254 36.5736H88.7913C89.9446 34.7131 91.6968 33.7842 94.0455 33.7842C95.8823 33.7842 97.4155 34.5099 98.6426 35.9613C99.8698 37.418 100.485 39.3313 100.485 41.7011ZM96.9616 41.8278C96.9616 40.313 96.6212 39.0621 95.935 38.0778C95.1882 37.0539 94.1828 36.5419 92.924 36.5419C92.0716 36.5419 91.2957 36.8269 90.6017 37.3917C89.9076 37.959 89.4537 38.7006 89.24 39.6189C89.1318 40.0465 89.079 40.3974 89.079 40.6719V43.2686C89.079 44.4008 89.4273 45.3561 90.1214 46.1372C90.8154 46.9157 91.718 47.3063 92.829 47.3063C94.1326 47.3063 95.146 46.8022 95.8717 45.7994C96.5974 44.7966 96.9616 43.4718 96.9616 41.8278Z" fill="white"/>
<path d="M118.395 41.7011C118.395 44.3506 117.678 46.4433 116.237 47.9792C114.946 49.3462 113.347 50.0297 111.434 50.0297C109.37 50.0297 107.887 49.2934 106.987 47.8209V55.9911H103.527V39.2231C103.527 37.5605 103.483 35.8531 103.398 34.1061H106.441L106.633 36.5736H106.699C107.853 34.7131 109.602 33.7842 111.954 33.7842C113.788 33.7842 115.324 34.5099 116.553 35.9613C117.78 37.418 118.395 39.3313 118.395 41.7011ZM114.87 41.8278C114.87 40.313 114.527 39.0621 113.843 38.0778C113.096 37.0539 112.093 36.5419 110.835 36.5419C109.982 36.5419 109.206 36.8269 108.51 37.3917C107.816 37.959 107.362 38.7006 107.151 39.6189C107.045 40.0465 106.99 40.3974 106.99 40.6719V43.2686C106.99 44.4008 107.338 45.3561 108.029 46.1372C108.724 46.9157 109.626 47.3063 110.74 47.3063C112.043 47.3063 113.059 46.8022 113.782 45.7994C114.506 44.7966 114.87 43.4718 114.87 41.8278Z" fill="white"/>
<path d="M138.42 43.6196C138.42 45.4589 137.776 46.9526 136.501 48.1058C135.095 49.3646 133.134 49.9953 130.619 49.9953C128.294 49.9953 126.434 49.5467 125.027 48.6495L125.827 45.7651C127.344 46.6649 129.009 47.1109 130.825 47.1109C132.129 47.1109 133.145 46.8154 133.868 46.2295C134.593 45.641 134.96 44.8572 134.96 43.8756C134.96 42.9968 134.657 42.2631 134.06 41.6641C133.461 41.0677 132.472 40.5109 131.081 39.9989C127.299 38.5897 125.407 36.526 125.407 33.8132C125.407 32.0424 126.075 30.591 127.41 29.4562C128.743 28.3241 130.514 27.7567 132.714 27.7567C134.68 27.7567 136.317 28.0998 137.618 28.7833L136.749 31.6043C135.525 30.942 134.145 30.6121 132.601 30.6121C131.382 30.6121 130.424 30.9129 129.738 31.5093C129.162 32.0424 128.869 32.6942 128.869 33.4674C128.869 34.3198 129.202 35.0271 129.864 35.5813C130.44 36.0932 131.487 36.65 133.002 37.2465C134.863 37.9959 136.227 38.8694 137.103 39.8722C137.982 40.8777 138.42 42.1286 138.42 43.6196Z" fill="white"/>
<path d="M149.889 36.7028H146.075V44.2635C146.075 46.1873 146.748 47.1452 148.094 47.1452C148.712 47.1452 149.226 47.0924 149.63 46.9842L149.725 49.6126C149.044 49.8686 148.147 49.9953 147.033 49.9953C145.666 49.9953 144.6 49.5783 143.83 48.7444C143.062 47.9105 142.676 46.5119 142.676 44.5458V36.6975H140.404V34.1008H142.676V31.2507L146.075 30.2241V34.1008H149.889V36.7028Z" fill="white"/>
<path d="M167.061 41.7644C167.061 44.1579 166.377 46.124 165.01 47.6599C163.58 49.2433 161.68 50.0297 159.307 50.0297C157.019 50.0297 155.201 49.2723 153.845 47.7575C152.488 46.2401 151.81 44.3295 151.81 42.023C151.81 39.611 152.512 37.6344 153.908 36.0959C155.309 34.5574 157.193 33.7894 159.566 33.7894C161.851 33.7894 163.685 34.5495 165.076 36.0642C166.398 37.5341 167.061 39.4342 167.061 41.7644ZM163.474 41.8436C163.474 40.4159 163.165 39.194 162.548 38.1701C161.822 36.9324 160.785 36.3149 159.439 36.3149C158.054 36.3149 156.99 36.9324 156.267 38.1701C155.647 39.194 155.338 40.4396 155.338 41.9095C155.338 43.3372 155.647 44.5644 156.267 45.5856C157.014 46.8233 158.059 47.4408 159.41 47.4408C160.732 47.4408 161.769 46.8101 162.519 45.554C163.155 44.5037 163.474 43.2739 163.474 41.8436Z" fill="white"/>
<path d="M178.31 37.1488C177.967 37.0855 177.601 37.0538 177.221 37.0538C176.004 37.0538 175.062 37.5103 174.399 38.434C173.824 39.2441 173.537 40.2707 173.537 41.5084V49.6786H170.077V39.0119C170.077 37.22 170.043 35.5839 169.977 34.1087H172.99L173.117 37.0881H173.212C173.579 36.0642 174.154 35.2382 174.94 34.6207C175.711 34.0638 176.545 33.7867 177.442 33.7867C177.762 33.7867 178.052 33.8105 178.308 33.8501L178.31 37.1488Z" fill="white"/>
<path d="M193.783 41.1548C193.783 41.7749 193.743 42.2975 193.656 42.725H183.277C183.317 44.2635 183.818 45.4405 184.784 46.2533C185.657 46.9764 186.79 47.3405 188.178 47.3405C189.714 47.3405 191.117 47.0977 192.376 46.6043L192.917 49.0031C191.445 49.647 189.703 49.9663 187.697 49.9663C185.283 49.9663 183.388 49.2564 182.008 47.8367C180.633 46.4169 179.941 44.5089 179.941 42.118C179.941 39.772 180.583 37.8165 181.865 36.2568C183.208 34.5917 185.024 33.7604 187.309 33.7604C189.553 33.7604 191.252 34.5917 192.405 36.2568C193.324 37.5763 193.783 39.2125 193.783 41.1548ZM190.484 40.2575C190.508 39.231 190.281 38.3469 189.811 37.5974C189.212 36.6342 188.291 36.1539 187.056 36.1539C185.924 36.1539 185.003 36.6237 184.304 37.5631C183.728 38.31 183.385 39.2099 183.28 40.2549L190.484 40.2575Z" fill="white"/>
<path d="M74.6597 20.3544H72.8467L71.8545 17.2378H68.4053L67.4606 20.3544H65.6978L69.1152 9.74048H71.2238L74.6597 20.3544ZM71.5563 15.9289L70.659 13.1579C70.564 12.8729 70.3925 12.2132 70.1233 11.1576H70.0916C69.9808 11.6141 69.8251 12.2765 69.5876 13.1579L68.7062 15.9289H71.5563Z" fill="white"/>
<path d="M83.2047 12.7014L80.3071 20.3544H78.6525L75.8473 12.7014H77.6735L78.9824 16.7496C79.2041 17.4252 79.3914 18.0717 79.5313 18.6866H79.5788C79.7055 18.1377 79.8928 17.4911 80.1277 16.7496L81.4182 12.7014H83.2047Z" fill="white"/>
<path d="M89.3746 20.3545L89.2479 19.4731H89.2004C88.6805 20.183 87.9258 20.5287 86.9652 20.5287C85.5956 20.5287 84.6191 19.5681 84.6191 18.2776C84.6191 16.3881 86.2553 15.4117 89.0922 15.4117V15.2718C89.0922 14.2637 88.5565 13.7597 87.5009 13.7597C86.7435 13.7597 86.0838 13.9497 85.5006 14.3271L85.1549 13.2082C85.8647 12.7674 86.7462 12.5458 87.7859 12.5458C89.7862 12.5458 90.7943 13.6014 90.7943 15.7125V18.531C90.7943 19.3042 90.826 19.9032 90.9052 20.3571L89.3746 20.3545ZM89.1371 16.5412C87.2476 16.5412 86.3028 16.9977 86.3028 18.085C86.3028 18.8872 86.791 19.2804 87.4692 19.2804C88.3348 19.2804 89.1397 18.6207 89.1397 17.7234L89.1371 16.5412Z" fill="white"/>
<path d="M94.5813 11.4401C94.0139 11.4401 93.5732 10.9994 93.5732 10.4162C93.5732 9.83296 94.0298 9.40808 94.613 9.40808C95.1962 9.40808 95.6686 9.83296 95.6528 10.4162C95.6528 11.031 95.212 11.4401 94.5813 11.4401ZM95.4627 20.3545H93.7632V12.7015H95.4627V20.3545Z" fill="white"/>
<path d="M100.186 20.3545H98.4869V9.18896H100.186V20.3545Z" fill="white"/>
<path d="M107.415 20.3545L107.288 19.4731H107.24C106.721 20.183 105.966 20.5287 105.005 20.5287C103.636 20.5287 102.659 19.5681 102.659 18.2776C102.659 16.3881 104.295 15.4117 107.132 15.4117V15.2718C107.132 14.2637 106.597 13.7597 105.541 13.7597C104.784 13.7597 104.124 13.9497 103.541 14.3271L103.192 13.2082C103.902 12.7674 104.784 12.5458 105.823 12.5458C107.824 12.5458 108.832 13.6014 108.832 15.7125V18.5257C108.832 19.2989 108.866 19.898 108.94 20.3519H107.415V20.3545ZM107.177 16.5412C105.288 16.5412 104.343 16.9977 104.343 18.085C104.343 18.8872 104.831 19.2804 105.509 19.2804C106.375 19.2804 107.18 18.6207 107.18 17.7234V16.5412H107.177Z" fill="white"/>
<path d="M115.722 20.5286C114.637 20.5286 113.835 20.0721 113.315 19.1748H113.281L113.183 20.3571H111.735C111.782 19.7449 111.798 19.0482 111.798 18.2934V9.18896H113.5V13.8204H113.532C114.036 12.9706 114.854 12.5457 115.973 12.5457C117.817 12.5457 119.108 14.1212 119.108 16.4197C119.108 18.7948 117.675 20.5286 115.722 20.5286ZM115.376 13.8811C114.397 13.8811 113.503 14.7308 113.503 15.9131V17.251C113.503 18.3066 114.308 19.1722 115.347 19.1722C116.622 19.1722 117.379 18.1324 117.379 16.4804C117.377 14.9366 116.588 13.8811 115.376 13.8811Z" fill="white"/>
<path d="M123.322 20.3545H121.623V9.18896H123.322V20.3545Z" fill="white"/>
<path d="M132.58 16.9369H127.473C127.508 18.3857 128.466 19.2038 129.883 19.2038C130.64 19.2038 131.332 19.0771 131.946 18.8423L132.21 20.0245C131.487 20.3386 130.638 20.4969 129.645 20.4969C127.249 20.4969 125.835 18.9848 125.835 16.6387C125.835 14.2927 127.286 12.5272 129.455 12.5272C131.408 12.5272 132.638 13.976 132.638 16.1664C132.643 16.4646 132.63 16.7311 132.58 16.9369ZM131.02 15.723C131.02 14.5408 130.421 13.7068 129.334 13.7068C128.357 13.7068 127.587 14.5566 127.473 15.723H131.02Z" fill="white"/>
<path d="M142.888 20.5286C140.652 20.5286 139.204 18.8581 139.204 16.5913C139.204 14.2294 140.684 12.5431 143.017 12.5431C145.218 12.5431 146.701 14.1344 146.701 16.4646C146.701 18.8581 145.173 20.5286 142.888 20.5286ZM142.954 13.786C141.726 13.786 140.937 14.934 140.937 16.5411C140.937 18.1166 141.74 19.2646 142.938 19.2646C144.133 19.2646 144.935 18.0374 144.935 16.5068C144.935 14.9525 144.149 13.786 142.954 13.786Z" fill="white"/>
<path d="M155.842 20.3545H154.143V15.9606C154.143 14.6068 153.623 13.9286 152.599 13.9286C151.591 13.9286 150.897 14.7942 150.897 15.8023V20.3545H149.197V14.8892C149.197 14.2136 149.179 13.4879 149.134 12.7015H150.63L150.71 13.8837H150.757C151.211 13.0657 152.143 12.5458 153.182 12.5458C154.787 12.5458 155.842 13.7729 155.842 15.7732V20.3545Z" fill="white"/>
<path d="M166.971 13.9761H165.1V17.6918C165.1 18.6365 165.43 19.1089 166.09 19.1089C166.39 19.1089 166.644 19.0772 166.847 19.0297L166.895 20.3202C166.565 20.4469 166.121 20.5102 165.572 20.5102C164.232 20.5102 163.432 19.7713 163.432 17.8316V13.9761H162.316V12.7015H163.432V11.3002L165.1 10.7961V12.7015H166.971V13.9761Z" fill="white"/>
<path d="M175.978 20.3545H174.276V15.9922C174.276 14.6226 173.756 13.9286 172.732 13.9286C171.85 13.9286 171.032 14.5276 171.032 15.7389V20.3518H169.33V9.18896H171.032V13.7861H171.064C171.6 12.9521 172.373 12.5405 173.363 12.5405C174.983 12.5405 175.975 13.7992 175.975 15.7996V20.3545H175.978Z" fill="white"/>
<path d="M184.665 16.9369H179.564C179.596 18.3857 180.554 19.2038 181.973 19.2038C182.731 19.2038 183.422 19.0771 184.037 18.8423L184.304 20.0245C183.581 20.3386 182.728 20.4969 181.736 20.4969C179.34 20.4969 177.925 18.9848 177.925 16.6387C177.925 14.2927 179.377 12.5272 181.546 12.5272C183.499 12.5272 184.729 13.976 184.729 16.1664C184.729 16.4646 184.713 16.7311 184.665 16.9369ZM183.106 15.723C183.106 14.5408 182.509 13.7068 181.422 13.7068C180.443 13.7068 179.675 14.5566 179.561 15.723H183.106Z" fill="white"/>
</svg>
