<svg width="49" height="49" viewBox="0 0 49 49" fill="none" xmlns="http://www.w3.org/2000/svg">
<g clip-path="url(#clip0)">
<circle cx="24.8378" cy="24.1616" r="24.1616" fill="#9AB9FA"/>
<path d="M36.5156 18.8514L25.5215 13.4251C25.3087 13.3202 25.0747 13.2656 24.8375 13.2656C24.6003 13.2656 24.3663 13.3202 24.1536 13.4251L13.1594 18.8514C12.7379 19.0579 12.3826 19.3782 12.1336 19.776C11.8845 20.1738 11.7516 20.6334 11.75 21.1027V32.7185C11.75 34.1085 12.8914 35.2354 14.2995 35.2354H35.378C36.7862 35.2354 37.9276 34.1085 37.9276 32.7185V21.1027C37.9257 20.6331 37.7925 20.1734 37.5429 19.7755C37.2934 19.3777 36.9376 19.0576 36.5156 18.8514V18.8514Z" stroke="white" stroke-linecap="round" stroke-linejoin="round"/>
<path d="M33.7306 31.2086L25.5974 24.8826C25.3323 24.6764 25.0061 24.5645 24.6703 24.5645C24.3345 24.5645 24.0082 24.6764 23.7431 24.8826L15.6094 31.2086" stroke="white" stroke-linecap="round" stroke-linejoin="round"/>
<path d="M28.1938 26.6151L36.7511 20.1343" stroke="white" stroke-linecap="round" stroke-linejoin="round"/>
<path d="M12.5894 20.1343L21.3353 26.741" stroke="white" stroke-linecap="round" stroke-linejoin="round"/>
</g>
<defs>
<clipPath id="clip0">
<rect width="48.3232" height="48.3232" fill="white" transform="translate(0.67627)"/>
</clipPath>
</defs>
</svg>
